<?xml version="1.0" encoding="utf-8"?><!-- Uploaded to: SVG Repo, www.svgrepo.com, Generator: SVG Repo Mixer Tools -->
<svg width="800px" height="800px" viewBox="0 0 24 24" fill="none" xmlns="http://www.w3.org/2000/svg">
<path fill-rule="evenodd" clip-rule="evenodd" d="M23 17C23 10.9249 18.0751 6 12 6C5.92487 6 1 10.9249 1 17H3C3 12.0294 7.02944 8 12 8C16.9706 8 21 12.0294 21 17H23Z" fill="#FF575B"/>
<path fill-rule="evenodd" clip-rule="evenodd" d="M21 17C21 12.0294 16.9706 8 12 8C7.02944 8 3 12.0294 3 17H5C5 13.134 8.13401 10 12 10C15.866 10 19 13.134 19 17H21Z" fill="#FABA2C"/>
<path fill-rule="evenodd" clip-rule="evenodd" d="M19 17C19 13.134 15.866 10 12 10C8.13401 10 5 13.134 5 17H7C7 14.2386 9.23858 12 12 12C14.7614 12 17 14.2386 17 17H19Z" fill="#7AC74D"/>
<path fill-rule="evenodd" clip-rule="evenodd" d="M17 17C17 14.2386 14.7614 12 12 12C9.23858 12 7 14.2386 7 17H9C9 15.3431 10.3431 14 12 14C13.6569 14 15 15.3431 15 17H17Z" fill="#00B0FF"/>
<path fill-rule="evenodd" clip-rule="evenodd" d="M15 17H13C13 16.4477 12.5523 16 12 16C11.4477 16 11 16.4477 11 17H9C9 15.3431 10.3431 14 12 14C13.6569 14 15 15.3431 15 17Z" fill="#B99FE4"/>
<path fill-rule="evenodd" clip-rule="evenodd" d="M13 17C13 16.4477 12.5523 16 12 16C11.4477 16 11 16.4477 11 17H13Z" fill="#E39BD1"/>
</svg>